<?xml version="1.0" encoding="utf-8"?>
<!-- Generator: Adobe Illustrator 27.5.0, SVG Export Plug-In . SVG Version: 6.00 Build 0)  -->
<svg version="1.1" xmlns="http://www.w3.org/2000/svg" xmlns:xlink="http://www.w3.org/1999/xlink" x="0px" y="0px"
	 viewBox="0 0 3710 3710" style="enable-background:new 0 0 3710 3710;" xml:space="preserve">
<g id="Background">
	<g>
		<g>
			<rect style="fill:#FFFFFF;" width="3710" height="3710"/>
		</g>
	</g>
</g>
<g id="Illustration">
	<g>
		<linearGradient id="SVGID_1_" gradientUnits="userSpaceOnUse" x1="3545.7549" y1="3463.4919" x2="1500.5696" y2="1628.8386">
			<stop  offset="0" style="stop-color:#B37CFF"/>
			<stop  offset="1" style="stop-color:#F895E7"/>
		</linearGradient>
		<path style="opacity:0.3;fill:url(#SVGID_1_);" d="M2864.223,2828.451c-68.838,70.956-130.433,112.667-177.591,144.155
			c-459.929,307.099-985.679,218.586-1148.228,188.332c-262.252-48.811-483.63-83.245-673.832-255.085
			c-432.198-390.474-411.177-1205.031-80.925-1709.614c39.158-59.829,368.91-548.624,895.798-617.499
			c12.887-1.685,22.502-2.644,30.924-3.536c81.508-8.63,586.599-54.177,998.451,290.872
			c58.955,49.392,153.829,138.482,241.809,274.36C3272.322,1637.267,3273.341,2406.748,2864.223,2828.451z"/>
		<g>
			
				<linearGradient id="SVGID_00000110458796280257035540000011834627895008137858_" gradientUnits="userSpaceOnUse" x1="2289.207" y1="2559.6055" x2="2936.2737" y2="2559.6055" gradientTransform="matrix(0.9879 -0.1553 0.1553 0.9879 -107.5361 194.0302)">
				<stop  offset="0" style="stop-color:#B37CFF"/>
				<stop  offset="1" style="stop-color:#F895E7"/>
			</linearGradient>
			<path style="fill:url(#SVGID_00000110458796280257035540000011834627895008137858_);" d="M3110.927,1761.342
				c-1.642-9.413-14.841-10.371-17.784-1.28c-28.457,87.885-110.295,315.999-226.996,434.144
				c-190.016,192.369-324.049,511.657-214.056,684.142C2652.09,2878.348,3289.802,2786.957,3110.927,1761.342z"/>
			<g style="opacity:0.43;">
				<path style="fill:#FFFFFF;" d="M3088.394,1887.586c0,0-0.137,0.95-0.404,2.789c-0.337,1.849-0.81,4.726-1.507,8.214
					c-1.343,7.071-3.445,17.394-6.319,30.493c-5.834,26.171-14.573,63.475-26.523,107.866c-6.092,22.161-12.75,46.158-20.318,71.387
					c-7.451,25.264-15.753,51.777-24.663,79.101c-9.166,27.238-18.777,55.344-29.242,83.656c-2.606,7.082-5.222,14.191-7.846,21.322
					c-2.722,7.095-5.453,14.21-8.188,21.34c-5.375,14.297-11.206,28.482-16.889,42.725c-5.7,14.236-11.764,28.327-17.706,42.401
					c-6.234,13.95-12.442,27.845-18.6,41.631c-6.471,13.645-12.655,27.292-19.192,40.573c-3.279,6.635-6.537,13.231-9.773,19.779
					c-3.205,6.563-6.448,13.049-9.826,19.402c-13.16,25.581-26.433,50.038-39.832,72.761c-13.257,22.806-26.58,43.901-39.093,63.219
					c-6.44,9.542-12.611,18.685-18.48,27.383c-6.005,8.601-12.029,16.536-17.509,24.109c-2.771,3.766-5.451,7.412-8.04,10.93
					c-2.708,3.429-5.319,6.736-7.827,9.911c-5.015,6.348-9.621,12.18-13.781,17.448c-8.498,10.392-15.584,18.22-20.231,23.702
					c-4.701,5.435-7.208,8.335-7.208,8.335c-0.597,0.689-1.64,0.765-2.329,0.168c-0.674-0.583-0.761-1.591-0.21-2.28l0.045-0.058
					c0,0,2.393-2.979,6.878-8.564c4.439-5.621,11.149-13.699,19.356-24.238c3.996-5.353,8.421-11.28,13.238-17.731
					c2.408-3.224,4.914-6.581,7.513-10.063c2.479-3.57,5.048-7.268,7.701-11.09c5.262-7.672,10.98-15.748,16.788-24.414
					c5.693-8.743,11.677-17.938,17.922-27.53c12.124-19.421,25.019-40.609,37.827-63.508c12.836-22.875,25.96-47.234,38.921-72.755
					c3.324-6.336,6.516-12.808,9.67-19.357c3.184-6.534,6.39-13.115,9.616-19.736c6.434-13.251,12.514-26.873,18.881-40.486
					c6.056-13.758,12.159-27.625,18.288-41.546c5.816-14.057,12.042-28.006,17.748-42.176c5.729-14.159,11.603-28.26,17.025-42.48
					c2.76-7.091,5.514-14.167,8.259-21.224c2.648-7.093,5.29-14.166,7.918-21.21c10.562-28.165,20.275-56.136,29.541-83.248
					c9.09-27.172,17.877-53.446,25.628-78.549c7.909-25.055,14.892-48.895,21.285-70.917c6.206-22.073,12.017-42.28,16.768-60.298
					c4.856-17.991,8.821-33.745,12.048-46.727c3.15-12.997,5.659-23.208,7.188-30.197c0.747-3.436,1.322-6.071,1.709-7.847
					c0.323-1.819,0.489-2.759,0.489-2.759l0.032-0.181c0.158-0.896,1.013-1.494,1.911-1.335
					C3087.929,1885.883,3088.52,1886.71,3088.394,1887.586z"/>
			</g>
		</g>
		<g>
			
				<linearGradient id="SVGID_00000034060040297174718830000001471607853951087794_" gradientUnits="userSpaceOnUse" x1="8102.4663" y1="3996.6721" x2="8338.6797" y2="3996.6721" gradientTransform="matrix(0.7032 0.711 -0.711 0.7032 46.4455 -6031.8291)">
				<stop  offset="0" style="stop-color:#A737D5"/>
				<stop  offset="1" style="stop-color:#EF497A"/>
			</linearGradient>
			<path style="fill:url(#SVGID_00000034060040297174718830000001471607853951087794_);" d="M2669.669,2958.448
				c0,0,2.144-116.129,118.776-233.96c108.215-109.327,374.251-362.287,435.362-502.137c2.707-6.195,11.897-4.389,11.983,2.372
				c0.92,72.517-11.05,254.319-135.913,435.333C2938.86,2893.482,2669.669,2958.448,2669.669,2958.448z"/>
			<g style="opacity:0.45;">
				<path style="fill:#FFFFFF;" d="M3181.917,2352.292c0,0-0.23,3.001-1.117,8.584c-0.429,2.792-0.989,6.233-1.833,10.241
					c-0.718,4.042-1.851,8.61-3.121,13.735c-1.152,5.161-2.929,10.724-4.639,16.864c-1.793,6.113-4.165,12.575-6.468,19.576
					c-2.603,6.879-5.35,14.226-8.482,21.874c-3.415,7.514-6.7,15.582-10.704,23.719c-7.874,16.342-17.24,33.664-28.182,51.352
					c-5.606,8.753-10.981,18.027-17.496,26.798c-6.381,8.859-12.508,18.221-19.694,27.007
					c-13.677,18.129-29.112,35.822-45.265,53.324c-8.304,8.553-16.539,17.244-25.061,25.841
					c-8.616,8.298-17.265,16.628-25.915,24.958c-17.501,16.542-35.052,33.057-52.632,48.91
					c-17.591,15.86-35.048,31.292-52.02,46.128c-17.094,14.672-33.617,28.854-49.287,42.302
					c-15.655,13.434-30.586,25.979-44.032,37.887c-13.523,11.838-25.741,22.837-36.27,32.901
					c-5.269,5.025-9.966,9.939-14.443,14.375c-4.301,4.58-8.141,8.887-11.675,12.729c-6.658,7.993-12.003,14.231-15.085,18.881
					c-3.264,4.533-5.006,6.95-5.006,6.95l-0.076,0.105c-0.534,0.739-1.567,0.907-2.308,0.374c-0.712-0.513-0.892-1.493-0.429-2.225
					c0,0,1.62-2.558,4.659-7.354c2.902-4.907,7.823-11.621,14.267-20.049c3.406-4.046,7.12-8.592,11.285-13.428
					c4.321-4.674,8.879-9.868,13.976-15.172c10.236-10.565,21.927-22.36,35.199-34.603c13.189-12.351,27.669-25.466,43.056-39.241
					c15.382-13.752,31.602-28.255,48.381-43.258c16.768-14.988,34.006-30.567,51.358-46.563
					c8.655-8.017,17.377-16.099,26.135-24.211c8.678-8.183,17.389-16.399,26.102-24.613c8.64-8.342,17.28-16.681,25.886-24.989
					c8.335-8.438,16.636-16.844,24.872-25.185c16.086-17.063,31.344-34.404,45.273-51.863c7.271-8.497,13.479-17.563,19.954-26.146
					c6.57-8.526,12.155-17.439,17.977-25.868c11.383-17.031,21.053-33.831,29.628-49.533c4.31-7.842,7.896-15.631,11.609-22.903
					c3.397-7.411,6.597-14.465,9.531-21.129c5.517-13.464,10.013-25.359,13.196-35.333c1.614-4.981,2.995-9.45,4.055-13.379
					c1.159-3.907,1.988-7.267,2.638-10.001c1.325-5.456,1.796-8.426,1.796-8.426c0.018-0.112,0.123-0.188,0.236-0.17
					C3181.852,2352.086,3181.926,2352.187,3181.917,2352.292z"/>
			</g>
		</g>
		<g>
			
				<linearGradient id="SVGID_00000124879448457164535840000010540394977865748916_" gradientUnits="userSpaceOnUse" x1="7166.249" y1="3579.5676" x2="7955.7402" y2="3579.5676" gradientTransform="matrix(0.558 -0.8298 0.8298 0.558 -5916.5347 5645.5527)">
				<stop  offset="0" style="stop-color:#A737D5"/>
				<stop  offset="1" style="stop-color:#EF497A"/>
			</linearGradient>
			<path style="fill:url(#SVGID_00000124879448457164535840000010540394977865748916_);" d="M1069.685,773.725
				c-42.047,125.855-256.827,868.249,403.622,1194.93c0,0,267.213-452.346-384.53-1198.789
				C1083.076,763.336,1072.432,765.503,1069.685,773.725z"/>
			<g style="opacity:0.86;">
				<path style="fill:#FFFFFF;" d="M1115.842,900.056c0,0,5.128,63.305,16.588,157.9c2.853,23.648,6.118,49.246,9.766,76.292
					c3.694,27.04,7.667,55.545,12.182,84.971c4.409,29.442,9.36,59.802,14.554,90.62c2.708,15.389,5.437,30.901,8.177,46.473
					c2.93,15.536,5.698,31.167,8.782,46.735c3.087,15.567,6.031,31.163,9.331,46.621c3.192,15.48,6.408,30.892,9.849,46.126
					c1.689,7.623,3.371,15.217,5.046,22.771c1.769,7.533,3.529,15.028,5.28,22.477c3.41,14.921,7.133,29.572,10.749,43.991
					c14.562,57.653,30.204,110.908,45.48,155.871c3.649,11.304,7.607,21.964,11.294,32.13c1.844,5.083,3.641,10.036,5.387,14.849
					c1.802,4.791,3.691,9.39,5.446,13.875c3.592,8.935,6.757,17.384,10.034,25.039c3.321,7.635,6.37,14.649,9.124,20.983
					c1.385,3.164,2.693,6.158,3.925,8.976c1.333,2.768,2.58,5.362,3.742,7.777c2.324,4.828,4.299,8.934,5.901,12.264
					c3.202,6.659,4.911,10.21,4.911,10.21l0.121,0.253c1.581,3.289,0.198,7.238-3.092,8.82c-3.289,1.582-7.238,0.198-8.819-3.091
					l-0.021-0.044c0,0-1.709-3.62-4.914-10.409c-1.602-3.394-3.578-7.581-5.9-12.502c-1.162-2.461-2.409-5.106-3.741-7.927
					c-1.227-2.864-2.53-5.908-3.909-9.123c-2.742-6.436-5.777-13.563-9.08-21.321c-3.26-7.774-6.394-16.328-9.955-25.386
					c-1.74-4.544-3.613-9.208-5.396-14.057c-1.725-4.87-3.5-9.88-5.322-15.021c-3.642-10.284-7.556-21.068-11.144-32.478
					c-15.051-45.419-30.372-99.079-44.56-157.073c-3.523-14.505-7.149-29.24-10.459-44.236c-1.701-7.489-3.41-15.022-5.128-22.594
					c-1.623-7.591-3.255-15.22-4.893-22.88c-3.334-15.307-6.444-30.785-9.529-46.33c-3.192-15.525-6.026-31.18-9.003-46.808
					c-2.974-15.628-5.63-31.312-8.449-46.904c-2.629-15.623-5.246-31.185-7.844-46.625c-4.974-30.914-9.705-61.362-13.899-90.881
					c-4.301-29.505-8.065-58.079-11.561-85.182c-3.452-27.109-6.528-52.762-9.208-76.46
					c-10.762-94.79-15.426-158.253-15.426-158.253c-0.116-1.542,1.039-2.886,2.582-3.003
					C1114.375,897.375,1115.715,898.525,1115.842,900.056z"/>
			</g>
		</g>
		<g>
			
				<linearGradient id="SVGID_00000118356581565548418580000008729445441128020407_" gradientUnits="userSpaceOnUse" x1="1265.1473" y1="1630.8147" x2="2153.3262" y2="1630.8147" gradientTransform="matrix(-1 0 0 1 2874.8853 0)">
				<stop  offset="0" style="stop-color:#B37CFF"/>
				<stop  offset="1" style="stop-color:#F895E7"/>
			</linearGradient>
			<path style="fill:url(#SVGID_00000118356581565548418580000008729445441128020407_);" d="M722.038,928.584
				c0.22-13.114,17.913-17.226,23.843-5.526c57.318,113.108,216.905,404.988,400.331,540.322
				c298.658,220.355,548.454,624.745,436.062,882.075C1582.274,2345.455,698.061,2357.437,722.038,928.584z"/>
			<g style="opacity:0.43;">
				<path style="fill:#FFFFFF;" d="M783.285,1093.961c0,0,0.419,1.241,1.236,3.646c0.905,2.348,2.127,5.748,3.963,10.35
					c3.528,9.171,9.035,22.515,16.029,39.494c7.091,16.944,15.761,37.494,26.109,60.894c10.221,23.454,22.294,49.676,35.378,78.312
					c13.312,28.534,27.806,59.412,43.811,91.742c15.81,32.426,33.241,66.24,51.33,101.181
					c18.329,34.814,37.446,70.701,57.755,106.671c5.065,9,10.15,18.035,15.25,27.097c5.224,8.99,10.462,18.008,15.711,27.042
					c10.378,18.141,21.343,36.027,32.121,54.024c10.759,18.01,22.148,35.628,33.054,53.45
					c11.217,17.624,22.461,35.136,33.714,52.445c11.553,17.106,22.721,34.283,34.288,50.882
					c5.797,8.291,11.556,16.533,17.277,24.716c2.859,4.092,5.709,8.168,8.548,12.229c2.918,4.004,5.824,7.992,8.719,11.963
					c5.805,7.932,11.561,15.797,17.264,23.588c2.858,3.89,5.703,7.761,8.533,11.613c2.914,3.789,5.811,7.559,8.695,11.309
					c11.65,14.902,22.478,29.938,33.959,43.824c5.643,7.022,11.211,13.949,16.692,20.772c2.742,3.412,5.463,6.798,8.162,10.157
					c2.785,3.287,5.546,6.548,8.286,9.781c11.039,12.861,21.466,25.505,31.911,37.255c10.547,11.662,20.654,22.839,30.267,33.469
					c9.757,10.495,19.284,20.193,28.093,29.45c4.431,4.602,8.72,9.058,12.861,13.358c4.286,4.154,8.417,8.158,12.385,12.006
					c7.941,7.698,15.235,14.769,21.823,21.155c13.423,12.506,24.306,21.973,31.558,28.617c7.307,6.585,11.206,10.096,11.206,10.096
					l0.052,0.047c0.678,0.611,0.733,1.655,0.121,2.333c-0.6,0.667-1.62,0.729-2.3,0.151c0,0-3.999-3.416-11.496-9.818
					c-7.436-6.473-18.65-15.636-32.337-27.951c-6.737-6.277-14.196-13.225-22.315-20.791c-4.062-3.783-8.288-7.722-12.673-11.808
					c-4.241-4.232-8.633-8.616-13.173-13.146c-9.01-9.126-18.816-18.637-28.758-29.039c-9.781-10.555-20.063-21.654-30.795-33.236
					c-10.631-11.671-21.25-24.233-32.492-37.015c-2.79-3.214-5.603-6.455-8.44-9.722c-2.75-3.339-5.522-6.704-8.316-10.095
					c-5.588-6.783-11.261-13.669-17.012-20.651c-22.91-28.001-46.091-58.323-69.35-90.2c-2.922-3.975-5.856-7.967-8.801-11.974
					c-2.864-4.063-5.74-8.144-8.627-12.238c-5.772-8.189-11.587-16.437-17.436-24.735c-11.675-16.612-22.949-33.798-34.611-50.919
					c-11.359-17.319-22.71-34.844-34.035-52.48c-5.527-8.903-11.065-17.823-16.609-26.752c-5.53-8.937-11.109-17.857-16.437-26.927
					c-10.749-18.085-21.684-36.061-32.026-54.287c-5.232-9.077-10.454-18.136-15.66-27.169
					c-5.082-9.102-10.149-18.178-15.195-27.218c-20.236-36.132-39.275-72.167-57.523-107.122
					c-17.933-35.12-34.924-69.244-50.463-101.875c-15.697-32.556-29.896-63.638-42.93-92.356
					c-25.783-57.571-45.77-106.197-59.351-140.393c-6.737-17.123-11.859-30.641-15.219-39.921c-1.712-4.585-2.96-8.321-3.821-10.744
					c-0.762-2.433-1.155-3.688-1.155-3.688c-0.273-0.869,0.21-1.794,1.08-2.066c0.855-0.268,1.767,0.197,2.054,1.042
					L783.285,1093.961z"/>
			</g>
		</g>
		<g>
			
				<linearGradient id="SVGID_00000092431200522110695590000003363841245555349946_" gradientUnits="userSpaceOnUse" x1="6773.3911" y1="4022.1248" x2="7143.0186" y2="4022.1248" gradientTransform="matrix(-0.5442 0.839 0.839 0.5442 1417.8929 -6074.2505)">
				<stop  offset="0" style="stop-color:#A737D5"/>
				<stop  offset="1" style="stop-color:#EF497A"/>
			</linearGradient>
			<path style="fill:url(#SVGID_00000092431200522110695590000003363841245555349946_);" d="M1596.317,2365.461
				c0,0-40.199-177.278-256.387-320.773c-200.584-133.138-688.676-436.216-826.78-631.102c-6.117-8.633-19.627-2.944-17.609,7.444
				c21.642,111.42,97.775,386.215,346.659,623.915C1163.148,2351.473,1596.317,2365.461,1596.317,2365.461z"/>
			<g style="opacity:0.45;">
				<path style="fill:#FFFFFF;" d="M619.145,1599.224c0,0,1.602,4.424,5.253,12.424c1.807,4.012,4.078,8.935,7.013,14.6
					c1.464,2.833,2.913,5.934,4.644,9.153c1.743,3.21,3.595,6.623,5.554,10.228c3.767,7.284,8.658,14.959,13.641,23.485
					c5.059,8.486,11.141,17.295,17.293,26.898c6.539,9.357,13.626,19.222,21.093,29.604c3.905,5.069,7.911,10.267,12.011,15.59
					c4.147,5.283,8.149,10.872,12.795,16.145c17.895,21.625,38.094,44.386,60.894,67.046c5.735,5.629,11.548,11.333,17.433,17.109
					c2.99,2.837,5.793,5.901,8.942,8.643c3.1,2.793,6.218,5.602,9.352,8.426c6.266,5.647,12.602,11.355,18.997,17.118
					c3.239,2.834,6.315,5.884,9.729,8.578c3.366,2.748,6.747,5.509,10.142,8.281c26.864,22.527,55.827,44.337,85.944,65.49
					c15.309,10.208,30.682,20.668,46.211,30.859c15.832,9.992,31.726,20.023,47.62,30.054c15.979,9.826,31.96,19.653,47.878,29.441
					c16.018,9.642,31.974,19.246,47.805,28.774c15.907,9.407,31.689,18.74,47.281,27.96c15.672,9.094,31.153,18.075,46.382,26.911
					c30.527,17.588,60.036,34.589,88.019,50.711c27.992,16.145,54.5,31.352,78.697,45.927
					c24.309,14.364,46.051,28.509,65.153,41.279c9.531,6.421,18.187,12.846,26.325,18.56c7.944,6.008,15.1,11.72,21.63,16.773
					c12.587,10.736,22.355,19.302,28.397,25.82c6.227,6.297,9.55,9.656,9.55,9.656c0.641,0.649,0.636,1.695-0.013,2.338
					c-0.634,0.626-1.646,0.636-2.29,0.033l-0.097-0.09c0,0-3.413-3.196-9.81-9.189c-6.164-6.227-16.25-14.243-28.958-24.509
					c-6.615-4.827-13.846-10.282-21.871-16.01c-8.24-5.45-16.98-11.571-26.617-17.685c-19.278-12.241-41.418-25.425-65.827-39.448
					c-24.332-14.133-51.05-28.899-79.276-44.584c-28.247-15.692-58.033-32.239-88.845-49.357
					c-15.314-8.742-30.885-17.63-46.646-26.627c-15.689-9.129-31.568-18.371-47.576-27.685c-15.926-9.46-31.995-18.95-48.013-28.704
					c-15.982-9.813-32.029-19.664-48.075-29.516c-15.9-10.02-31.802-20.039-47.639-30.019c-15.736-10.403-31.116-21.052-46.53-31.46
					c-30.275-21.57-59.482-43.689-86.233-66.923c-3.391-2.848-6.765-5.684-10.125-8.508c-3.406-2.768-6.479-5.895-9.711-8.804
					c-6.381-5.913-12.7-11.769-18.952-17.562c-12.781-11.291-23.982-23.706-35.376-35.254
					c-22.449-23.447-42.264-46.926-59.763-69.177c-4.544-5.428-8.451-11.173-12.498-16.602c-3.999-5.466-7.904-10.806-11.712-16.012
					c-3.755-5.242-7.096-10.579-10.475-15.665c-3.328-5.123-6.66-10.031-9.703-14.906c-5.822-9.919-11.58-19.003-16.337-27.739
					c-4.68-8.778-9.281-16.663-12.786-24.138c-3.671-7.384-6.95-13.971-9.416-19.888c-2.648-5.829-4.67-10.886-6.273-15
					c-3.247-8.215-4.62-12.717-4.62-12.717c-0.035-0.107,0.023-0.224,0.129-0.259
					C618.99,1599.065,619.105,1599.123,619.145,1599.224z"/>
			</g>
		</g>
		<g>
			<g>
				
					<linearGradient id="SVGID_00000108304901630641036640000013762445333948288922_" gradientUnits="userSpaceOnUse" x1="1917.2617" y1="1929.7167" x2="1426.778" y2="3872.7808">
					<stop  offset="0" style="stop-color:#53D8FF"/>
					<stop  offset="1" style="stop-color:#3840F7"/>
				</linearGradient>
				<path style="fill:url(#SVGID_00000108304901630641036640000013762445333948288922_);" d="M2684.619,2998.787H957.758
					c-69.719,0-126.236-56.518-126.236-126.236V1748.1c0-66.99,52.326-122.313,119.211-126.04l1793.495-99.965
					c75.091-4.186,137.162,57.803,133.075,132.9l-66.635,1224.415C2807.024,2946.364,2751.671,2998.787,2684.619,2998.787z"/>
				<g>
					
						<linearGradient id="SVGID_00000175285131743928574990000012517188246233391509_" gradientUnits="userSpaceOnUse" x1="2494.5171" y1="662.3826" x2="570.3126" y2="3397.7715">
						<stop  offset="0" style="stop-color:#53D8FF"/>
						<stop  offset="1" style="stop-color:#3840F7"/>
					</linearGradient>
					<path style="fill:url(#SVGID_00000175285131743928574990000012517188246233391509_);" d="M1861.509,2320.282l943.958-786.151
						c-18.415-8.784-39.261-13.263-61.239-12.036l-1793.495,99.964c-30.84,1.719-58.569,14.426-79.516,34.172l706.469,657.023
						C1654.38,2384.581,1780.55,2387.705,1861.509,2320.282z"/>
				</g>
			</g>
			<path style="fill:#FFFFFF;" d="M1730.282,2281.321c-46.932,0-93.647-16.791-131.188-49.934l-266.183-234.992
				c-7.812-6.896-8.554-18.817-1.658-26.628c6.896-7.824,18.829-8.561,26.628-1.658l266.182,234.992
				c56.548,49.915,138.816,54.035,200.08,10.01l137.929-99.138c8.488-6.08,20.248-4.139,26.334,4.312
				c6.08,8.463,4.152,20.248-4.311,26.333l-137.931,99.138C1811.185,2268.891,1770.653,2281.321,1730.282,2281.321z"/>
			<path style="fill:#FFFFFF;" d="M1246.364,1913.692c-4.44,0-8.892-1.553-12.479-4.723l-35.833-31.633
				c-7.812-6.897-8.555-18.817-1.659-26.628c6.891-7.824,18.817-8.549,26.628-1.658l35.835,31.633
				c7.81,6.896,8.554,18.817,1.658,26.628C1256.785,1911.536,1251.583,1913.692,1246.364,1913.692z"/>
		</g>
		<g>
			
				<linearGradient id="SVGID_00000111891647205398837680000009710535044240506029_" gradientUnits="userSpaceOnUse" x1="1582.1914" y1="1243.3353" x2="2609.8979" y2="-338.7889">
				<stop  offset="0" style="stop-color:#A737D5"/>
				<stop  offset="1" style="stop-color:#EF497A"/>
			</linearGradient>
			<polygon style="fill:url(#SVGID_00000111891647205398837680000009710535044240506029_);" points="1506.679,1148.019 
				1434.63,1533.754 1659.242,1336.283 			"/>
			
				<linearGradient id="SVGID_00000183209485033590808600000015917864957196375424_" gradientUnits="userSpaceOnUse" x1="1973.9849" y1="1500.7186" x2="3065.7732" y2="-180.0578">
				<stop  offset="0" style="stop-color:#A737D5"/>
				<stop  offset="1" style="stop-color:#EF497A"/>
			</linearGradient>
			<path style="fill:url(#SVGID_00000183209485033590808600000015917864957196375424_);" d="M3141.464,1264.348l-1561.121,75.764
				c-40.092,1.946-73.663-30.036-73.663-70.175V627.69c0-69.807,55.444-126.993,125.218-129.152L3038.871,455
				c104.775,0,189.712,84.937,189.712,189.712v528.186C3228.583,1221.739,3190.247,1261.981,3141.464,1264.348z"/>
			<path style="opacity:0.85;fill:#FFFFFF;" d="M1627.033,1312.588c-24.432,0-47.46-9.206-65.277-26.201
				c-18.939-18.064-29.37-42.425-29.37-68.596V638.937c0-67.275,53.958-121.603,122.842-123.683L3017.49,474.12
				c102.246-0.002,185.387,81.151,185.387,180.901v499.057c0,47.095-37.743,85.774-85.926,88.056l-0.078-1.651l0.078,1.651
				l-1485.288,70.344C1630.115,1312.55,1628.571,1312.588,1627.033,1312.588z M3017.54,477.424l-1362.212,41.135
				c-67.086,2.025-119.637,54.901-119.637,120.378v578.854c0,25.26,10.067,48.772,28.345,66.205
				c18.28,17.433,42.23,26.368,67.472,25.181l1485.288-70.344c46.416-2.198,82.776-39.427,82.776-84.755V655.021
				C3199.572,557.093,3117.912,477.424,3017.54,477.424z"/>
			<g>
				<path style="fill:#FFFFFF;" d="M1754.114,766.481c1.762,0.156,3.345,0.539,4.759,1.146c1.41,0.607,2.798,1.509,4.157,2.701
					c1.362,1.197,2.877,2.787,4.56,4.773l173.979,205.947c-0.768-5.091-1.349-10.081-1.746-14.969
					c-0.394-4.886-0.668-9.447-0.82-13.686l-6.936-192.65l51.943-1.87l11.409,316.917l-30.465,1.097
					c-4.678,0.168-8.572-0.42-11.695-1.773c-3.119-1.348-6.211-3.87-9.269-7.565l-173.292-205.094
					c0.608,4.662,1.104,9.287,1.49,13.881s0.646,8.792,0.783,12.59l7.007,194.62l-51.943,1.87l-11.409-316.917l30.901-1.114
					C1750.157,766.294,1752.352,766.325,1754.114,766.481z"/>
				<path style="fill:#FFFFFF;" d="M2247.887,748.373l1.688,46.901l-140.486,5.057l3.165,87.888l110.681-3.984l1.633,45.367
					l-110.681,3.984l3.228,89.639l140.486-5.057l1.696,47.121l-199.881,7.197l-11.409-316.917L2247.887,748.373z"/>
				<path style="fill:#FFFFFF;" d="M2269.582,747.592l49.532-1.783c5.112-0.184,9.427,0.87,12.95,3.156
					c3.518,2.285,5.938,5.456,7.255,9.503l60.739,187.638c1.486,4.633,2.873,9.663,4.167,15.103
					c1.292,5.44,2.559,11.211,3.805,17.309c0.946-6.177,2.017-12.032,3.208-17.561c1.189-5.53,2.505-10.659,3.944-15.395
					l55.418-191.821c1.047-3.402,3.237-6.555,6.571-9.453c3.334-2.898,7.484-4.439,12.455-4.619l17.314-0.624
					c5.112-0.184,9.392,0.871,12.841,3.161c3.447,2.288,5.905,5.458,7.365,9.498l68.63,187.354c3.55,9.24,6.702,19.512,9.45,30.825
					c0.816-5.737,1.678-11.254,2.587-16.554c0.905-5.299,1.861-10.233,2.866-14.808l47.092-191.52
					c0.887-3.687,3.042-6.912,6.455-9.669c3.413-2.755,7.602-4.223,12.571-4.402l46.243-1.665l-86.996,320.461l-53.26,1.917
					l-77.052-214.043c-0.976-2.742-1.999-5.706-3.063-8.888c-1.067-3.177-2.103-6.579-3.111-10.202
					c-0.744,3.686-1.535,7.154-2.366,10.399c-0.839,3.252-1.643,6.281-2.417,9.085l-62.119,219.054l-53.26,1.919L2269.582,747.592z"
					/>
				<path style="fill:#FFFFFF;" d="M2929.598,781.547c-1.496,3.274-3.276,5.603-5.346,6.996c-2.072,1.391-4.569,2.138-7.49,2.243
					c-2.926,0.107-6.251-0.905-9.986-3.042c-3.734-2.13-8.136-4.496-13.202-7.094c-5.07-2.595-10.967-4.907-17.698-6.934
					c-6.731-2.025-14.625-2.877-23.682-2.551c-8.185,0.295-15.272,1.539-21.264,3.729c-5.992,2.19-11.007,5.114-15.043,8.772
					c-4.039,3.655-6.992,7.97-8.863,12.937c-1.872,4.972-2.698,10.378-2.489,16.22c0.268,7.452,2.576,13.589,6.918,18.405
					c4.343,4.819,10.008,8.856,17.002,12.116c6.996,3.258,14.925,6.121,23.793,8.58c8.866,2.461,17.922,5.098,27.167,7.909
					c9.242,2.814,18.325,6.142,27.241,9.992c8.917,3.847,16.922,8.827,24.021,14.935c7.095,6.108,12.892,13.691,17.388,22.745
					c4.496,9.056,6.981,20.159,7.454,33.307c0.516,14.322-1.449,27.814-5.895,40.482c-4.448,12.669-11.214,23.814-20.302,33.43
					c-9.09,9.618-20.333,17.338-33.73,23.159c-13.396,5.821-28.862,9.05-46.396,9.681c-10.081,0.363-20.054-0.266-29.912-1.885
					c-9.861-1.62-19.348-4.094-28.468-7.425c-9.116-3.326-17.678-7.407-25.676-12.243c-8.002-4.83-15.183-10.279-21.546-16.341
					l16.078-28.889c1.531-2.101,3.406-3.886,5.622-5.359c2.214-1.467,4.709-2.253,7.486-2.353c3.65-0.132,7.651,1.227,11.997,4.067
					c4.344,2.843,9.466,5.989,15.372,9.431c5.902,3.447,12.816,6.528,20.741,9.239c7.924,2.716,17.369,3.873,28.326,3.479
					c16.802-0.605,29.664-5.053,38.581-13.35c8.919-8.291,13.108-19.892,12.573-34.797c-0.3-8.328-2.625-15.046-6.979-20.157
					c-4.354-5.111-10.031-9.329-17.026-12.663c-6.996-3.332-14.921-6.082-23.777-8.253c-8.856-2.166-17.867-4.549-27.032-7.146
					c-9.166-2.595-18.201-5.782-27.117-9.558c-8.913-3.771-16.923-8.825-24.025-15.156c-7.108-6.327-12.916-14.348-17.437-24.061
					c-4.518-9.711-7.039-21.8-7.559-36.265c-0.416-11.54,1.48-22.876,5.688-34c4.207-11.125,10.576-21.082,19.113-29.877
					c8.533-8.788,19.139-15.974,31.813-21.553c12.671-5.576,27.264-8.662,43.775-9.256c18.702-0.673,36.051,1.628,52.04,6.904
					c15.99,5.279,29.727,12.974,41.211,23.094L2929.598,781.547z"/>
			</g>
		</g>
		<g>
			
				<linearGradient id="SVGID_00000085231295025564574520000005797810751057337228_" gradientUnits="userSpaceOnUse" x1="1401.6161" y1="1142.9005" x2="1231.918" y2="1492.6862" gradientTransform="matrix(0.987 0.1608 -0.1608 0.987 126.9837 357.2448)">
				<stop  offset="0" style="stop-color:#2B3582"/>
				<stop  offset="1" style="stop-color:#150E42"/>
			</linearGradient>
			<path style="fill:url(#SVGID_00000085231295025564574520000005797810751057337228_);" d="M1000.624,2005.015
				c-0.867,1.642-55.44,41.8-55.44,41.8s12.051,86.217,60.991,120.264c53.805,37.431,129.792-30.831,129.792-30.831
				s60.472,14.375,92.631-111.506c7.378-28.88-35.211-31.322-86.611-26.003C1075.704,2005.598,1000.624,2005.015,1000.624,2005.015z
				"/>
			
				<linearGradient id="SVGID_00000023985290687543933510000012312730926192011657_" gradientUnits="userSpaceOnUse" x1="1074.0856" y1="2278.0422" x2="1138.3516" y2="4222.0737">
				<stop  offset="0" style="stop-color:#FDF53F"/>
				<stop  offset="1" style="stop-color:#D93C65"/>
			</linearGradient>
			<path style="fill:url(#SVGID_00000023985290687543933510000012312730926192011657_);" d="M862.656,2341.11
				c25.401-17.464,53.484-30.631,83.258-38.734c11.183-3.043,71.565,14.506,108.893,13.648
				c51.238-1.178,103.393-24.496,145.628-13.97c41.953,10.455,76.29,24.11,96.116,38.211
				c59.344,42.208,94.188,120.911,115.421,198.869c-40.206,41.271-90.802,59.614-90.802,59.614l-9.35,378.933l-224.07,114.643
				l-255.749-128.401l9.161-370.308c0,0-81.213-37.821-87.172-51.578C748.031,2528.28,791.004,2390.375,862.656,2341.11z"/>
			
				<linearGradient id="SVGID_00000083790153099522617660000003926760220874121389_" gradientUnits="userSpaceOnUse" x1="702.1677" y1="2459.2603" x2="1127.9637" y2="3487.8066">
				<stop  offset="0" style="stop-color:#F9B776"/>
				<stop  offset="1" style="stop-color:#F47960"/>
			</linearGradient>
			<path style="fill:url(#SVGID_00000083790153099522617660000003926760220874121389_);" d="M757.773,2540.383
				c0,0-108.83,301.72,139.342,425.726c51.53-6.846,31.711-92.422,31.711-92.422s-107.832-23.864-75.447-275.556
				C823.563,2573.599,757.773,2540.383,757.773,2540.383z"/>
			
				<linearGradient id="SVGID_00000083051472936542332090000012174368384420203175_" gradientUnits="userSpaceOnUse" x1="-5624.0776" y1="2457.0493" x2="-5198.2817" y2="3485.5955" gradientTransform="matrix(-1 0 0 1 -4167.0742 0)">
				<stop  offset="0" style="stop-color:#F9B776"/>
				<stop  offset="1" style="stop-color:#F47960"/>
			</linearGradient>
			<path style="fill:url(#SVGID_00000083051472936542332090000012174368384420203175_);" d="M1406.738,2540.383
				c0,0,74.886,314.955-139.342,425.726c-51.531-6.846-31.711-92.422-31.711-92.422s86.907-42.801,75.447-275.556
				C1340.948,2573.599,1406.738,2540.383,1406.738,2540.383z"/>
			
				<linearGradient id="SVGID_00000096045709096581192100000010734237068545955238_" gradientUnits="userSpaceOnUse" x1="736.7972" y1="3242.1436" x2="1283.1158" y2="2561.9241">
				<stop  offset="0" style="stop-color:#53D8FF"/>
				<stop  offset="1" style="stop-color:#3840F7"/>
			</linearGradient>
			<path style="fill:url(#SVGID_00000096045709096581192100000010734237068545955238_);" d="M1298.626,2987.301H850.834
				c-11.981,0-21.783-9.802-21.783-21.783V2677.25c0-11.981,9.802-21.783,21.783-21.783h447.792
				c11.981,0,21.783,9.802,21.783,21.783v288.267C1320.41,2977.498,1310.607,2987.301,1298.626,2987.301z"/>
			<g>
				
					<linearGradient id="SVGID_00000086672385222645247280000012584152243281178517_" gradientUnits="userSpaceOnUse" x1="1711.6104" y1="3135.4634" x2="478.9633" y2="3120.6719">
					<stop  offset="0" style="stop-color:#2B3582"/>
					<stop  offset="1" style="stop-color:#150E42"/>
				</linearGradient>
				<path style="fill:url(#SVGID_00000086672385222645247280000012584152243281178517_);" d="M1541.498,3087.088
					c-1.761-0.496-3.625-0.964-5.572-1.412c-56.232-12.906-186.197-5.967-186.197-5.967l-5.286,14.316l-8.755,71.155
					c0,0,123.771,22.31,184.779,22.255c6.225-0.005,11.918-0.939,17.119-2.558
					C1583.353,3170.632,1588.771,3100.385,1541.498,3087.088z"/>
				
					<linearGradient id="SVGID_00000153676850196086021520000000365438798352685470_" gradientUnits="userSpaceOnUse" x1="1489.5258" y1="2712.0317" x2="1243.9135" y2="3377.2993">
					<stop  offset="0" style="stop-color:#F9B776"/>
					<stop  offset="1" style="stop-color:#F47960"/>
				</linearGradient>
				<path style="fill:url(#SVGID_00000153676850196086021520000000365438798352685470_);" d="M1312.385,3075.702l22.008,0.939
					c11.824,0.505,22.967,6.266,30.917,15.985c7.95,9.72,12.038,22.579,11.343,35.68c-0.555,10.445-4.84,20.215-11.909,27.145
					c-7.068,6.931-16.336,10.45-25.751,9.78l-33.673-2.397L1312.385,3075.702z"/>
			</g>
			<g>
				
					<linearGradient id="SVGID_00000141452705871315512390000017976027495591740828_" gradientUnits="userSpaceOnUse" x1="908.0649" y1="3130.9043" x2="-324.3974" y2="3116.115">
					<stop  offset="0" style="stop-color:#2B3582"/>
					<stop  offset="1" style="stop-color:#150E42"/>
				</linearGradient>
				<path style="fill:url(#SVGID_00000141452705871315512390000017976027495591740828_);" d="M763.585,3093.052l-4.928-14.472
					c0,0-129.743-10.925-186.275,0.252c-1.956,0.387-3.832,0.798-5.605,1.239c-47.586,11.843-43.923,82.228,1.472,97.872
					c5.158,1.778,10.826,2.885,17.048,3.083c60.984,1.927,185.263-16.576,185.263-16.576L763.585,3093.052z"/>
				
					<linearGradient id="SVGID_00000008855953553561195970000004972771871010962865_" gradientUnits="userSpaceOnUse" x1="997.4366" y1="2511.5522" x2="751.6949" y2="3177.1704">
					<stop  offset="0" style="stop-color:#F9B776"/>
					<stop  offset="1" style="stop-color:#F47960"/>
				</linearGradient>
				<path style="fill:url(#SVGID_00000008855953553561195970000004972771871010962865_);" d="M796.087,3075.721l-22.022,0.263
					c-11.832,0.142-23.115,5.559-31.304,15.031c-8.19,9.472-12.597,22.201-12.229,35.318c0.294,10.458,4.334,20.355,11.227,27.5
					c6.893,7.145,16.069,10.948,25.497,10.567l33.719-1.363L796.087,3075.721z"/>
			</g>
			
				<linearGradient id="SVGID_00000183210255608340507320000000276907897384085153_" gradientUnits="userSpaceOnUse" x1="104.876" y1="3463.9065" x2="1857.7072" y2="2746.6545">
				<stop  offset="0" style="stop-color:#CE1567"/>
				<stop  offset="1" style="stop-color:#7A1DBC"/>
			</linearGradient>
			<path style="fill:url(#SVGID_00000183210255608340507320000000276907897384085153_);" d="M1551.652,2862.611
				c-25.501-58.692-87.872-68.219-140.958-40.777c-0.924,1.213-337.121,173.519-633.607,249.034
				c8.488,27.211,12.852,56.164,13.804,84.624c0.172,6.34,0.065,12.593-0.307,18.764c227.362-11.678,474.117-87.503,686.154-154.138
				C1542.49,2998.914,1579.916,2927.661,1551.652,2862.611z"/>
			
				<linearGradient id="SVGID_00000062876107475478934240000013361596585799670417_" gradientUnits="userSpaceOnUse" x1="1164.8242" y1="3280.6208" x2="583.1619" y2="2474.2241">
				<stop  offset="0" style="stop-color:#CE1567"/>
				<stop  offset="1" style="stop-color:#7A1DBC"/>
			</linearGradient>
			<path style="fill:url(#SVGID_00000062876107475478934240000013361596585799670417_);" d="M1314.001,3159.951
				c-0.889-32.803,5.489-63.34,19.133-91.611c0.39-1.295,0.857-2.538,1.27-3.818c-16.931-5.243-38.803-12.347-67.536-22.094
				c-210.534-72.051-371.148-144.802-524.436-228.549c-59.55-32.535-127.259-10.73-146.321,59.733
				c-17.018,62.902,20.352,116.605,77.069,135.478c169.683,56.464,81.335,40.78,136.752,58.615
				c148.829,46.022,334.028,87.941,504.423,99.388C1314.227,3164.71,1314.081,3162.326,1314.001,3159.951z"/>
			
				<linearGradient id="SVGID_00000095318430519842012500000014464474864354061727_" gradientUnits="userSpaceOnUse" x1="1075.9556" y1="2544.1846" x2="1070.29" y2="2051.2539">
				<stop  offset="0" style="stop-color:#F9B776"/>
				<stop  offset="1" style="stop-color:#F47960"/>
			</linearGradient>
			<path style="fill:url(#SVGID_00000095318430519842012500000014464474864354061727_);" d="M945.914,2302.376
				c0,0,22.642,98.121,132.572,96.083c111.968-2.037,121.949-96.406,121.949-96.406l-73.14-15.65l-6.112-81.495l-110.019,8.149
				l-2.037,77.421L945.914,2302.376z"/>
			
				<linearGradient id="SVGID_00000114062511845172622760000002484089707829983133_" gradientUnits="userSpaceOnUse" x1="1227.6184" y1="1707.4178" x2="1242.4519" y2="1346.8986" gradientTransform="matrix(0.987 0.1608 -0.1608 0.987 126.9837 357.2448)">
				<stop  offset="0" style="stop-color:#F9B776"/>
				<stop  offset="1" style="stop-color:#F47960"/>
			</linearGradient>
			<path style="fill:url(#SVGID_00000114062511845172622760000002484089707829983133_);" d="M1036.422,1990.614
				c0,0-105.971,205.271,19.735,255.073c88.667,35.127,144.259-136.316,127.678-182.751c-25.638-71.798-42.523-63.278-42.523-63.278
				L1036.422,1990.614z"/>
			
				<linearGradient id="SVGID_00000062173584813336154990000002137127418091604671_" gradientUnits="userSpaceOnUse" x1="1402.8595" y1="1093.6711" x2="1211.9121" y2="1487.2561" gradientTransform="matrix(0.987 0.1608 -0.1608 0.987 126.9837 357.2448)">
				<stop  offset="0" style="stop-color:#2B3582"/>
				<stop  offset="1" style="stop-color:#150E42"/>
			</linearGradient>
			<path style="fill:url(#SVGID_00000062173584813336154990000002137127418091604671_);" d="M1209.335,1971.936
				c52.352,14.389,7.611,127.928-71.208,101.078c-78.818-26.849-109.791-26.457-122.073-4.814
				c-12.283,21.643-14.922,98.502-41.57,60.513c-29.217-41.649-45.508-125.247-9.685-152.196
				c32.015-24.084,39.486-61.426,77.885-60.132c50.969,1.718,90.385-20.875,113.392-4.582
				C1182.499,1930.517,1170.815,1961.349,1209.335,1971.936z"/>
			
				<linearGradient id="SVGID_00000088848437294896057240000017569794440147052948_" gradientUnits="userSpaceOnUse" x1="700.1017" y1="2619.4304" x2="723.3474" y2="2054.4597" gradientTransform="matrix(0.9911 -0.1329 0.1329 0.9911 -26.0254 -216.2621)">
				<stop  offset="0" style="stop-color:#F9B776"/>
				<stop  offset="1" style="stop-color:#F47960"/>
			</linearGradient>
			<path style="fill:url(#SVGID_00000088848437294896057240000017569794440147052948_);" d="M1011.207,2085.851
				c0,0-22.601-24.317-26.218,4.991c-3.618,29.309,7.996,67.057,21.604,46.366C1020.2,2116.517,1011.207,2085.851,1011.207,2085.851
				z"/>
		</g>
	</g>
</g>
</svg>
